<svg xmlns="http://www.w3.org/2000/svg" version="1.1" xmlns:xlink="http://www.w3.org/1999/xlink" xmlns:svgjs="http://svgjs.dev/svgjs" width="2000" height="575" viewBox="0 0 2000 575"><g transform="matrix(1,0,0,1,-1.2121212121212466,-2.513600231512612)"><svg viewBox="0 0 396 114" data-background-color="#ffffff" preserveAspectRatio="xMidYMid meet" height="575" width="2000" xmlns="http://www.w3.org/2000/svg" xmlns:xlink="http://www.w3.org/1999/xlink"><g id="tight-bounds" transform="matrix(1,0,0,1,0.2400000000000091,0.49834856763902735)"><svg viewBox="0 0 395.52 113.00330286472193" height="113.00330286472193" width="395.52"><g><svg viewBox="0 0 395.52000000000004 113.00330286472195" height="113.00330286472193" width="395.52"><g transform="matrix(1,0,0,1,0,69.84057463806927)"><svg viewBox="0 0 395.52000000000004 43.16272822665268" height="43.16272822665268" width="395.52000000000004"><g id="textblocktransform"><svg viewBox="0 0 395.52000000000004 43.16272822665268" height="43.16272822665268" width="395.52000000000004" id="textblock"><g><svg viewBox="0 0 395.52000000000004 43.16272822665268" height="43.16272822665268" width="395.52000000000004"><g transform="matrix(1,0,0,1,0,0)"><svg width="395.52000000000004" viewBox="4 -35.7 333.53 36.400000000000006" height="43.16272822665268" data-palette-color="#e8772e"><path d="M4-17.5L4-17.5Q4-21.35 5.38-24.68 6.75-28 9.22-30.48 11.7-32.95 15.03-34.33 18.35-35.7 22.2-35.7L22.2-35.7Q26.05-35.7 29.38-34.33 32.7-32.95 35.18-30.48 37.65-28 39.03-24.68 40.4-21.35 40.4-17.5L40.4-17.5Q40.4-13.65 39.03-10.33 37.65-7 35.18-4.53 32.7-2.05 29.38-0.68 26.05 0.7 22.2 0.7L22.2 0.7Q18.35 0.7 15.03-0.68 11.7-2.05 9.22-4.53 6.75-7 5.38-10.33 4-13.65 4-17.5ZM7.8-17.5L7.8-17.5Q7.8-12.4 9.6-8.58 11.4-4.75 14.65-2.63 17.9-0.5 22.2-0.5L22.2-0.5Q26.5-0.5 29.75-2.63 33-4.75 34.8-8.6 36.6-12.45 36.6-17.5L36.6-17.5Q36.6-22.55 34.8-26.38 33-30.2 29.75-32.35 26.5-34.5 22.2-34.5L22.2-34.5Q17.9-34.5 14.68-32.38 11.45-30.25 9.63-26.43 7.8-22.6 7.8-17.5ZM50.9 0L50.9-35 57.6-35Q62.9-35 65.82-32.77 68.75-30.55 68.75-26.55L68.75-26.55Q68.75-23.45 66.92-21.4 65.1-19.35 61.65-18.65L61.65-18.65 61.65-18.35Q64.95-17.7 67.05-15.25 69.15-12.8 70.2-9.2L70.2-9.2Q71.15-5.9 72.07-4.08 73-2.25 74.12-1.45 75.25-0.65 76.8-0.3L76.8-0.3 76.8 0 74.75 0Q72.55 0 71.12-0.8 69.7-1.6 68.7-3.5 67.7-5.4 66.8-8.75L66.8-8.75Q65.35-13.9 62.95-16.05 60.55-18.2 57.1-18.2L57.1-18.2 56.8-18.2 56.8-19.1 57.1-19.1Q65.15-19.1 65.15-26.5L65.15-26.5Q65.15-33.8 57.6-33.8L57.6-33.8 54.3-33.8 54.3 0 50.9 0ZM94 0L83 0 83-35 94-35Q99.8-35 104.09-32.8 108.4-30.6 110.8-26.68 113.2-22.75 113.2-17.5L113.2-17.5Q113.2-12.25 110.8-8.33 108.4-4.4 104.09-2.2 99.8 0 94 0L94 0ZM94-33.8L94-33.8 86.4-33.8 86.4-1.2 94-1.2Q101.25-1.2 105.32-5.5 109.4-9.8 109.4-17.5L109.4-17.5Q109.4-25.2 105.32-29.5 101.25-33.8 94-33.8ZM139.09 0L123.69 0 123.69-35 138.94-35 138.94-32.55 130.19-33.7Q127.89-34 127.09-34L127.09-34 127.09-18.75Q127.74-18.75 130.19-18.9L130.19-18.9 138.39-19.4 138.39-17.1 130.19-17.6Q127.74-17.75 127.09-17.75L127.09-17.75 127.09-1Q127.99-1 130.24-1.3L130.24-1.3 139.09-2.45 139.09 0ZM149.59 0L149.59-35 156.29-35Q161.59-35 164.52-32.77 167.44-30.55 167.44-26.55L167.44-26.55Q167.44-23.45 165.62-21.4 163.79-19.35 160.34-18.65L160.34-18.65 160.34-18.35Q163.64-17.7 165.74-15.25 167.84-12.8 168.89-9.2L168.89-9.2Q169.84-5.9 170.77-4.08 171.69-2.25 172.81-1.45 173.94-0.65 175.49-0.3L175.49-0.3 175.49 0 173.44 0Q171.24 0 169.81-0.8 168.39-1.6 167.39-3.5 166.39-5.4 165.49-8.75L165.49-8.75Q164.04-13.9 161.64-16.05 159.24-18.2 155.79-18.2L155.79-18.2 155.49-18.2 155.49-19.1 155.79-19.1Q163.84-19.1 163.84-26.5L163.84-26.5Q163.84-33.8 156.29-33.8L156.29-33.8 152.99-33.8 152.99 0 149.59 0ZM211.04-35L214.64-35 214.64 0 211.24 0 211.24-32.1 210.94-32.1 198.84-8.9 197.29-8.9 183.54-29.35 183.24-29.35 184.34 0 180.94 0 182.19-35.7 183.19-35.7 198.94-12.3 199.24-12.3 211.04-35ZM226.08 0L222.44 0 235.88-35 238.98-35 252.44 0 248.78 0 242.58-16.4 231.23-16.4 226.08 0ZM236.53-32.4L236.23-32.4 231.58-17.6 242.13-17.6 236.53-32.4ZM258.98 0L255.33 0 268.78-35 271.88-35 285.33 0 281.68 0 275.48-16.4 264.13-16.4 258.98 0ZM269.43-32.4L269.13-32.4 264.48-17.6 275.03-17.6 269.43-32.4ZM304.43 0L293.43 0 293.43-35 304.43-35Q310.23-35 314.53-32.8 318.83-30.6 321.23-26.68 323.63-22.75 323.63-17.5L323.63-17.5Q323.63-12.25 321.23-8.33 318.83-4.4 314.53-2.2 310.23 0 304.43 0L304.43 0ZM304.43-33.8L304.43-33.8 296.83-33.8 296.83-1.2 304.43-1.2Q311.68-1.2 315.75-5.5 319.83-9.8 319.83-17.5L319.83-17.5Q319.83-25.2 315.75-29.5 311.68-33.8 304.43-33.8ZM337.53 0L334.13 0 334.13-35 337.53-35 337.53 0Z" opacity="1" transform="matrix(1,0,0,1,0,0)" fill="#e8772e" class="wordmark-text-0" data-fill-palette-color="primary" id="text-0"></path></svg></g></svg></g></svg></g></svg></g><g transform="matrix(1,0,0,1,178.8914188228526,0)"><svg viewBox="0 0 37.73716235429484 59.65089040923401" height="59.65089040923401" width="37.73716235429484"><g><svg version="1.0" xmlns="http://www.w3.org/2000/svg" xmlns:xlink="http://www.w3.org/1999/xlink" x="8.000000000000002" y="0" viewBox="0 0.278 36.44034983216459 99.99922155814964" enable-background="new 0 0 36.439 100.277" xml:space="preserve" id="icon-0" width="21.737162354294835" height="59.65089040923401" class="icon-icon-0" data-fill-palette-color="accent"><path d="M26.47 95.631A4.604 4.604 0 0 0 31.038 100.277 4.6 4.6 0 0 0 35.683 95.71L36.44 5.307C36.477 0.837 33.571 0.336 31.537 0.32 29.495 0.303 25.72 6.033 24.864 11.32 24 16.602 18.891 43.844 26.988 49.207z" fill="#e8772e" data-fill-palette-color="accent"></path><path d="M4.888 95.452L5.506 37.22C2.192 37.193 0.562 33.246 0 30.39L2.006 0.278 4.72 24.584 7.263 0.32 9.974 24.628 13.098 0.369 15.229 24.672 18.349 0.413 19.846 30.556C19.244 33.402 17.782 37.322 14.46 37.295L14.107 95.528A4.61 4.61 0 0 1 9.458 100.096 4.606 4.606 0 0 1 4.888 95.452" fill="#e8772e" data-fill-palette-color="accent"></path></svg></g></svg></g><g><rect width="178.8914188228526" height="3.8924593754150685" y="54.758431033818944" x="216.62858117714745" fill="#e8772e" data-fill-palette-color="accent"></rect><rect width="178.8914188228526" height="3.8924593754150685" y="54.758431033818944" x="2.842170943040401e-14" fill="#e8772e" data-fill-palette-color="accent"></rect><rect width="178.8914188228526" height="3.8924593754150685" y="46.97351228298881" x="216.62858117714745" fill="#e8772e" data-fill-palette-color="accent"></rect><rect width="178.8914188228526" height="3.8924593754150685" y="46.97351228298881" x="2.842170943040401e-14" fill="#e8772e" data-fill-palette-color="accent"></rect></g></svg></g><defs></defs></svg><rect width="395.52" height="113.00330286472193" fill="none" stroke="none" visibility="hidden"></rect></g></svg></g></svg>